<svg version="1.1" id="Layer_1" xmlns="http://www.w3.org/2000/svg" x="0" y="0" viewBox="0 0 481 397" xml:space="preserve">
    <style>
        .st0,.st1,.st2,.st3{fill-rule:evenodd;clip-rule:evenodd;fill:#4fbad0}.st1,.st2,.st3{fill:#007389}.st2,.st3{fill:#7cc8c7}.st3{fill:#e03585}.st11,.st4,.st5,.st6,.st7,.st8,.st9{fill-rule:evenodd;clip-rule:evenodd;fill:#2c333d}.st11,.st5,.st6,.st7,.st8,.st9{fill:#0aadcb}.st11,.st6,.st7,.st8,.st9{fill:#009ab8}.st11,.st7,.st8,.st9{fill:#472963}.st11,.st8,.st9{fill:#364051}.st11,.st9{fill:#932e88}.st11{fill:#df3584}
    </style>
    <path class="st0" d="M70.5 55.6l45.2-26.1 45.2 26.1-45.2 26.1z"/>
    <path class="st1" d="M70.5 55.6v52.2l45.2 26.1V81.7z"/>
    <path class="st2" d="M115.7 133.9l45.2-26.1V55.6l-45.2 26.1z"/>
    <path class="st0" d="M94.2 94.7l45.2-26.1 45.2 26.1-45.2 26.1z"/>
    <path class="st3" d="M94.2 94.7v52.2l45.2 26.1v-52.2z"/>
    <path class="st4" d="M139.4 173l45.2-26.1V94.7l-45.2 26.1z"/>
    <path class="st3" d="M49 199.1l67.8-39.1 67.8 39.1-67.8 39.2z"/>
    <path class="st4" d="M49 199.1v78.3l67.8 39.2v-78.3zM116.8 316.6l67.8-39.2v-78.3l-67.8 39.2z"/>
    <path class="st0" d="M320.2 42.5l22.6-13 22.6 13-22.6 13.1z"/>
    <path class="st5" d="M320.2 42.5v26.1l22.6 13.1V55.6z"/>
    <path class="st6" d="M342.8 81.7l22.6-13.1V42.5l-22.6 13.1z"/>
    <path class="st0" d="M207.2 290.5l22.6-13.1 22.6 13.1-22.6 13z"/>
    <path class="st7" d="M207.2 290.5v26.1l22.6 13v-26.1z"/>
    <path class="st6" d="M229.8 329.6l22.6-13v-26.1l-22.6 13z"/>
    <path class="st0" d="M162 81.7l45.2-26.1 45.2 26.1-45.2 26.1z"/>
    <path class="st1" d="M162 81.7v52.2l45.2 26.1v-52.2z"/>
    <path class="st6" d="M207.2 160l45.2-26.1V81.7l-45.2 26.1z"/>
    <path class="st0" d="M139.4 303.5l45.2-26.1 45.2 26.1-45.2 26.1z"/>
    <path class="st1" d="M139.4 303.5v52.2l45.2 26.1v-52.2z"/>
    <path class="st6" d="M184.6 381.8l45.2-26.1v-52.2l-45.2 26.1z"/>
    <path class="st3" d="M3.8 277.4l67.8-39.1 67.8 39.1-67.8 39.2z"/>
    <path class="st4" d="M3.8 277.4v78.3l67.8 39.2v-78.3z"/>
    <path class="st8" d="M71.6 394.9l67.8-39.2v-78.3l-67.8 39.2z"/>
    <path class="st3" d="M252.4 107.8l45.2-26.1 45.2 26.1-45.2 26.1z"/>
    <path class="st7" d="M252.4 107.8V160l45.2 26.1v-52.2z"/>
    <path class="st8" d="M297.6 186.1l45.2-26.1v-52.2l-45.2 26.1z"/>
    <path class="st3" d="M26.4 107.8l45.2-26.1 45.2 26.1-45.2 26.1z"/>
    <path class="st4" d="M26.4 107.8V160l45.2 26.1v-52.2z"/>
    <path class="st8" d="M71.6 186.1l45.2-26.1v-52.2l-45.2 26.1z"/>
    <path class="st3" d="M116.8 212.2l45.2-26.1 45.2 26.1-45.2 26.1z"/>
    <path class="st4" d="M116.8 212.2v52.2l45.2 26.1v-52.2z"/>
    <path class="st8" d="M162 290.5l45.2-26.1v-52.2L162 238.3z"/>
    <path class="st0" d="M252.4 290.5l45.2-26.1 45.2 26.1-45.2 26.1z"/>
    <path class="st1" d="M252.4 290.5v52.2l45.2 26.1v-52.2z"/>
    <path class="st6" d="M297.6 368.8l45.2-26.1v-52.2l-45.2 26.1z"/>
    <path class="st1" d="M410.6 199.1v26.1l22.6 13.1v-26.1z"/>
    <path class="st6" d="M455.8 173l22.6-13v-26.1l-22.6 13z"/>
    <path class="st3" d="M162 160l22.6-13.1 22.6 13.1-22.6 13z"/>
    <path class="st4" d="M162 160v26.1l22.6 13V173z"/>
    <path class="st8" d="M184.6 199.1l22.6-13V160l-22.6 13z"/>
    <path class="st3" d="M184.6 120.8l22.6-13 22.6 13-22.6 13.1z"/>
    <path class="st4" d="M184.6 120.8v26.1l22.6 13.1v-26.1z"/>
    <path class="st8" d="M207.2 160l22.6-13.1v-26.1l-22.6 13.1z"/>
    <path class="st3" d="M342.8 107.8l22.6-13.1 22.6 13.1-22.6 13z"/>
    <path class="st4" d="M342.8 107.8v26.1l22.6 13v-26.1z"/>
    <path class="st2" d="M365.4 146.9l22.6-13v-26.1l-22.6 13z"/>
    <path class="st3" d="M365.4 277.4l22.6-13 22.6 13-22.6 13.1z"/>
    <path class="st4" d="M365.4 277.4v26.1l22.6 13.1v-26.1z"/>
    <path class="st8" d="M388 316.6l22.6-13.1v-26.1L388 290.5z"/>
    <path class="st3" d="M365.4 120.8l22.6-13 22.6 13-22.6 13.1z"/>
    <path class="st5" d="M365.4 120.8v26.1L388 160v-26.1z"/>
    <path class="st8" d="M388 160l22.6-13.1v-26.1L388 133.9z"/>
    <path class="st9" d="M342.8 160l22.6-13.1L388 160l-22.6 13z"/>
    <path class="st4" d="M342.8 160v26.1l22.6 13V173z"/>
    <path class="st8" d="M365.4 199.1l22.6-13V160l-22.6 13z"/>
    <path class="st0" d="M162 29.5l22.6-13.1 22.6 13.1-22.6 13z"/>
    <path class="st5" d="M162 29.5v26.1l22.6 13V42.5z"/>
    <path class="st0" d="M184.6 68.6l22.6-13V29.5l-22.6 13zM297.6 55.6l22.6-13.1 22.6 13.1-22.6 13z"/>
    <path class="st6" d="M297.6 55.6v26.1l22.6 13V68.6z"/>
    <path class="st6" d="M320.2 94.7l22.6-13V55.6l-22.6 13z"/>
    <path class="st0" d="M297.6 133.9l22.6-13.1 22.6 13.1-22.6 13z"/>
    <path class="st1" d="M297.6 133.9V160l22.6 13v-26.1z"/>
    <path class="st6" d="M320.2 173l22.6-13v-26.1l-22.6 13z"/>
    <path class="st0" d="M388 160l22.6-13.1 22.6 13.1-22.6 13z"/>
    <path class="st8" d="M388 160v26.1l22.6 13V173z"/>
    <path class="st6" d="M410.6 199.1l22.6-13V160l-22.6 13z"/>
    <path class="st0" d="M297.6 212.2l22.6-13.1 22.6 13.1-22.6 13z"/>
    <path class="st1" d="M297.6 212.2v26.1l22.6 13v-26.1z"/>
    <path class="st6" d="M320.2 251.3l22.6-13v-26.1l-22.6 13z"/>
    <path class="st0" d="M410.6 120.8l22.6-13 22.6 13-22.6 13.1z"/>
    <path class="st1" d="M410.6 120.8v26.1l22.6 13.1v-26.1z"/>
    <path class="st6" d="M433.2 160l22.6-13.1v-26.1l-22.6 13.1z"/>
    <path class="st9" d="M229.8 173l22.6-13 22.6 13-22.6 13.1z"/>
    <path class="st5" d="M229.8 173v26.1l22.6 13.1v-26.1z"/>
    <path class="st2" d="M252.4 212.2l22.6-13.1V173l-22.6 13.1z"/>
    <path class="st9" d="M207.2 186.1l22.6-13.1 22.6 13.1-22.6 13z"/>
    <path class="st1" d="M207.2 186.1v26.1l22.6 13v-26.1z"/>
    <path class="st2" d="M229.8 225.2l22.6-13v-26.1l-22.6 13z"/>
    <path class="st9" d="M252.4 160l22.6-13.1 22.6 13.1-22.6 13z"/>
    <path class="st1" d="M252.4 160v26.1l22.6 13V173z"/>
    <path class="st6" d="M275 199.1l22.6-13V160L275 173z"/>
    <path class="st0" d="M116.8 133.9l22.6-13.1 22.6 13.1-22.6 13z"/>
    <path class="st1" d="M116.8 133.9V160l22.6 13v-26.1z"/>
    <path class="st6" d="M139.4 173l22.6-13v-26.1l-22.6 13z"/>
    <path fill-rule="evenodd" clip-rule="evenodd" fill="#ea5260" d="M252.4 133.9l22.6-13.1 22.6 13.1-22.6 13z"/>
    <path class="st4" d="M252.4 133.9V160l22.6 13v-26.1z"/>
    <path class="st8" d="M275 173l22.6-13v-26.1l-22.6 13z"/>
    <path class="st11" d="M252.4 107.8L275 94.7l22.6 13.1-22.6 13z"/>
    <path class="st4" d="M252.4 107.8v26.1l22.6 13v-26.1z"/>
    <path class="st8" d="M275 146.9l22.6-13v-26.1l-22.6 13z"/>
    <path class="st3" d="M207.2 212.2l45.2-26.1 45.2 26.1-45.2 26.1z"/>
    <path class="st4" d="M207.2 212.2v52.2l45.2 26.1v-52.2z"/>
    <path class="st8" d="M252.4 290.5l45.2-26.1v-52.2l-45.2 26.1z"/>
    <path class="st3" d="M229.8 199.1l22.6-13 22.6 13-22.6 13.1z"/>
    <path class="st4" d="M229.8 199.1v26.1l22.6 13.1v-26.1z"/>
    <path class="st8" d="M252.4 238.3l22.6-13.1v-26.1l-22.6 13.1z"/>
    <path class="st11" d="M71.6 212.2l22.6-13.1 22.6 13.1-22.6 13z"/>
    <path fill-rule="evenodd" clip-rule="evenodd" fill="#263044" d="M71.6 212.2v26.1l22.6 13v-26.1z"/>
    <path class="st8" d="M94.2 251.3l22.6-13v-26.1l-22.6 13z"/>
    <path class="st3" d="M94.2 199.1l22.6-13 22.6 13-22.6 13.1z"/>
    <path class="st4" d="M94.2 199.1v26.1l22.6 13.1v-26.1z"/>
    <path class="st8" d="M116.8 238.3l22.6-13.1v-26.1l-22.6 13.1z"/>
    <path class="st0" d="M207.2 160l22.6-13.1 22.6 13.1-22.6 13z"/>
    <path fill-rule="evenodd" clip-rule="evenodd" fill="#007388" d="M207.2 160v26.1l22.6 13V173z"/>
    <path class="st6" d="M229.8 199.1l22.6-13V160l-22.6 13z"/>
    <path class="st0" d="M342.8 133.9l22.6-13.1 22.6 13.1-22.6 13z"/>
    <path class="st1" d="M342.8 133.9V160l22.6 13v-26.1z"/>
    <path class="st6" d="M365.4 173l22.6-13v-26.1l-22.6 13z"/>
    <path class="st3" d="M388 55.6l22.6-13.1 22.6 13.1-22.6 13z"/>
    <path class="st4" d="M388 55.6v26.1l22.6 13V68.6z"/>
    <path class="st8" d="M410.6 94.7l22.6-13V55.6l-22.6 13z"/>
    <path class="st0" d="M229.8 16.4l22.6-13 22.6 13-22.6 13.1z"/>
    <path class="st1" d="M229.8 16.4v26.1l22.6 13.1V29.5z"/>
    <path class="st6" d="M252.4 55.6L275 42.5V16.4l-22.6 13.1z"/>
    <path class="st0" d="M342.8 238.3l22.6-13.1 22.6 13.1-22.6 13z"/>
    <path class="st1" d="M342.8 238.3v26.1l22.6 13v-26.1z"/>
    <path class="st3" d="M365.4 277.4l22.6-13v-26.1l-22.6 13zM139.4 42.5l22.6-13 22.6 13L162 55.6z"/>
    <path class="st7" d="M139.4 42.5v26.1L162 81.7V55.6z"/>
    <path class="st8" d="M162 81.7l22.6-13.1V42.5L162 55.6z"/>
    <path class="st3" d="M116.8 55.6l22.6-13.1L162 55.6l-22.6 13z"/>
    <path class="st4" d="M116.8 55.6v26.1l22.6 13V68.6z"/>
    <path class="st8" d="M139.4 94.7l22.6-13V55.6l-22.6 13z"/>
    <path class="st3" d="M275 42.5l22.6-13 22.6 13-22.6 13.1z"/>
    <path class="st4" d="M275 42.5v26.1l22.6 13.1V55.6z"/>
    <path class="st8" d="M297.6 81.7l22.6-13.1V42.5l-22.6 13.1z"/>
    <path class="st0" d="M229.8 251.3l22.6-13 22.6 13-22.6 13.1z"/>
    <path class="st1" d="M229.8 251.3v26.1l22.6 13.1v-26.1z"/>
    <path class="st6" d="M252.4 290.5l22.6-13.1v-26.1l-22.6 13.1z"/>
    <path class="st0" d="M184.6 251.3l22.6-13 22.6 13-22.6 13.1z"/>
    <path class="st1" d="M184.6 251.3v26.1l22.6 13.1v-26.1z"/>
    <path class="st6" d="M207.2 290.5l22.6-13.1v-26.1l-22.6 13.1z"/>
</svg>
