<svg version="1.1" id="Layer_1" xmlns="http://www.w3.org/2000/svg" x="0" y="0" viewBox="0 0 224 94" xml:space="preserve">
    <style>
        .st0{fill:#fff}
    </style>
    <g id="White_1_">
        <path class="st0" d="M187.7 32.4v5.8h.5v-5.6l9.4 5.6 9.6-5.8-9.6-5.9zM197.6 38.2v11.7l9.6-5.9V32.4zM197.4 14.8v5.8h.5v-5.5l9.3 5.6 9.7-5.9-9.7-5.8z"/>
        <path class="st0" d="M207.2 20.7v11.6l9.7-5.8V14.8z"/>
        <g>
            <path class="st0" d="M9.6 29.3h4.9v36.6H9.6V29.3zM40.8 29.3h4.5v36.6h-4.5v-4.5c-2.3 3.4-5.6 5.2-9.9 5.2-3.7 0-6.8-1.3-9.4-4-2.6-2.7-3.9-5.9-3.9-9.7 0-3.8 1.3-7.1 3.9-9.7 2.6-2.7 5.7-4 9.4-4 4.3 0 7.6 1.7 9.9 5.2V29.3zm-9.3 32.8c2.6 0 4.9-.9 6.6-2.7 1.8-1.8 2.7-4 2.7-6.7 0-2.6-.9-4.9-2.7-6.7-1.8-1.8-4-2.7-6.6-2.7-2.6 0-4.8.9-6.6 2.7-1.8 1.8-2.7 4-2.7 6.7 0 2.6.9 4.9 2.7 6.7 1.8 1.8 4 2.7 6.6 2.7zM52.8 54.9c.5 2.3 1.5 4.1 3.2 5.4 1.7 1.3 3.8 1.9 6.2 1.9 3.4 0 6-1.3 7.5-3.8l3.9 2.2c-2.5 3.9-6.4 5.9-11.5 5.9-4.1 0-7.5-1.3-10.1-3.9-2.6-2.6-3.9-5.9-3.9-9.8 0-3.9 1.3-7.2 3.8-9.8 2.5-2.6 5.8-3.9 9.9-3.9 3.8 0 7 1.4 9.4 4 2.4 2.7 3.6 5.9 3.6 9.7 0 .7-.1 1.3-.2 2H52.8zm9.1-11.6c-2.4 0-4.5.7-6.1 2.1-1.6 1.4-2.6 3.2-3 5.5h17.4c-.4-2.5-1.4-4.4-2.9-5.6-1.5-1.3-3.3-2-5.4-2zM99.1 39.7h4.5v26.1h-4.5v-4.5c-2.3 3.4-5.6 5.2-9.9 5.2-3.7 0-6.8-1.3-9.4-4-2.6-2.7-3.9-5.9-3.9-9.7 0-3.8 1.3-7.1 3.9-9.7 2.6-2.7 5.7-4 9.4-4 4.3 0 7.6 1.7 9.9 5.2v-4.6zm-9.3 22.4c2.6 0 4.9-.9 6.6-2.7 1.8-1.8 2.7-4 2.7-6.7 0-2.6-.9-4.9-2.7-6.7-1.8-1.8-4-2.7-6.6-2.7-2.6 0-4.8.9-6.6 2.7-1.8 1.8-2.7 4-2.7 6.7 0 2.6.9 4.9 2.7 6.7 1.8 1.8 4 2.7 6.6 2.7zM129.6 39.7h4.5v25c0 3.9-1.3 6.9-3.9 9-2.6 2.1-5.7 3.2-9.4 3.2-2.9 0-5.5-.5-7.6-1.6-2.1-1.1-3.7-2.7-4.8-4.7l4-2.2c1.4 2.9 4.3 4.4 8.5 4.4 2.7 0 4.8-.7 6.4-2.1 1.5-1.4 2.3-3.4 2.3-5.9V61c-2.3 3.5-5.6 5.2-9.8 5.2-3.7 0-6.9-1.3-9.5-4s-3.9-5.9-3.9-9.7c0-3.8 1.3-7 3.9-9.6 2.6-2.6 5.7-3.9 9.5-3.9 4.3 0 7.6 1.7 9.8 5.2v-4.5zm-15.9 19.6c1.8 1.8 4 2.7 6.6 2.7 2.6 0 4.9-.9 6.6-2.7 1.8-1.8 2.7-4 2.7-6.6 0-2.6-.9-4.8-2.7-6.6s-4-2.7-6.6-2.7c-2.6 0-4.9.9-6.6 2.7-1.8 1.8-2.7 4-2.7 6.6 0 2.6.9 4.8 2.7 6.6zM141.6 54.9c.5 2.3 1.5 4.1 3.2 5.4 1.7 1.3 3.8 1.9 6.2 1.9 3.4 0 6-1.3 7.5-3.8l3.9 2.2c-2.5 3.9-6.4 5.9-11.5 5.9-4.1 0-7.5-1.3-10.1-3.9-2.6-2.6-3.9-5.9-3.9-9.8 0-3.9 1.3-7.2 3.8-9.8 2.5-2.6 5.8-3.9 9.9-3.9 3.8 0 7 1.4 9.4 4 2.4 2.7 3.6 5.9 3.6 9.7 0 .7-.1 1.3-.2 2h-21.8zm9-11.6c-2.4 0-4.5.7-6.1 2.1-1.6 1.4-2.6 3.2-3 5.5h17.4c-.4-2.5-1.4-4.4-2.9-5.6-1.4-1.3-3.3-2-5.4-2zM179.3 39.1c3.1 0 5.5 1 7.4 2.9 1.8 1.9 2.8 4.6 2.8 7.9v16H185V50.1c0-2.1-.6-3.8-1.7-4.9-1.1-1.2-2.7-1.7-4.8-1.7-2.3 0-4.1.7-5.5 2.1-1.4 1.4-2.1 3.6-2.1 6.5v13.8h-4.5V39.7h4.5v3.8c1.8-3 4.6-4.4 8.4-4.4z"/>
        </g>
        <g>
            <path class="st0" d="M187.7 32.4v5.8h.5v-5.6l9.4 5.6 9.6-5.8-9.6-5.9zM197.6 38.2v11.7l9.6-5.9V32.4zM197.4 14.8v5.8h.5v-5.5l9.3 5.6 9.7-5.9-9.7-5.8z"/>
            <path class="st0" d="M207.2 20.7v11.6l9.7-5.8V14.8z"/>
        </g>
        <g>
            <path class="st0" d="M9.6 29.3h4.9v36.6H9.6V29.3zM40.8 29.3h4.5v36.6h-4.5v-4.5c-2.3 3.4-5.6 5.2-9.9 5.2-3.7 0-6.8-1.3-9.4-4-2.6-2.7-3.9-5.9-3.9-9.7 0-3.8 1.3-7.1 3.9-9.7 2.6-2.7 5.7-4 9.4-4 4.3 0 7.6 1.7 9.9 5.2V29.3zm-9.3 32.8c2.6 0 4.9-.9 6.6-2.7 1.8-1.8 2.7-4 2.7-6.7 0-2.6-.9-4.9-2.7-6.7-1.8-1.8-4-2.7-6.6-2.7-2.6 0-4.8.9-6.6 2.7-1.8 1.8-2.7 4-2.7 6.7 0 2.6.9 4.9 2.7 6.7 1.8 1.8 4 2.7 6.6 2.7zM52.8 54.9c.5 2.3 1.5 4.1 3.2 5.4 1.7 1.3 3.8 1.9 6.2 1.9 3.4 0 6-1.3 7.5-3.8l3.9 2.2c-2.5 3.9-6.4 5.9-11.5 5.9-4.1 0-7.5-1.3-10.1-3.9-2.6-2.6-3.9-5.9-3.9-9.8 0-3.9 1.3-7.2 3.8-9.8 2.5-2.6 5.8-3.9 9.9-3.9 3.8 0 7 1.4 9.4 4 2.4 2.7 3.6 5.9 3.6 9.7 0 .7-.1 1.3-.2 2H52.8zm9.1-11.6c-2.4 0-4.5.7-6.1 2.1-1.6 1.4-2.6 3.2-3 5.5h17.4c-.4-2.5-1.4-4.4-2.9-5.6-1.5-1.3-3.3-2-5.4-2zM99.1 39.7h4.5v26.1h-4.5v-4.5c-2.3 3.4-5.6 5.2-9.9 5.2-3.7 0-6.8-1.3-9.4-4-2.6-2.7-3.9-5.9-3.9-9.7 0-3.8 1.3-7.1 3.9-9.7 2.6-2.7 5.7-4 9.4-4 4.3 0 7.6 1.7 9.9 5.2v-4.6zm-9.3 22.4c2.6 0 4.9-.9 6.6-2.7 1.8-1.8 2.7-4 2.7-6.7 0-2.6-.9-4.9-2.7-6.7-1.8-1.8-4-2.7-6.6-2.7-2.6 0-4.8.9-6.6 2.7-1.8 1.8-2.7 4-2.7 6.7 0 2.6.9 4.9 2.7 6.7 1.8 1.8 4 2.7 6.6 2.7zM129.6 39.7h4.5v25c0 3.9-1.3 6.9-3.9 9-2.6 2.1-5.7 3.2-9.4 3.2-2.9 0-5.5-.5-7.6-1.6-2.1-1.1-3.7-2.7-4.8-4.7l4-2.2c1.4 2.9 4.3 4.4 8.5 4.4 2.7 0 4.8-.7 6.4-2.1 1.5-1.4 2.3-3.4 2.3-5.9V61c-2.3 3.5-5.6 5.2-9.8 5.2-3.7 0-6.9-1.3-9.5-4s-3.9-5.9-3.9-9.7c0-3.8 1.3-7 3.9-9.6 2.6-2.6 5.7-3.9 9.5-3.9 4.3 0 7.6 1.7 9.8 5.2v-4.5zm-15.9 19.6c1.8 1.8 4 2.7 6.6 2.7 2.6 0 4.9-.9 6.6-2.7 1.8-1.8 2.7-4 2.7-6.6 0-2.6-.9-4.8-2.7-6.6s-4-2.7-6.6-2.7c-2.6 0-4.9.9-6.6 2.7-1.8 1.8-2.7 4-2.7 6.6 0 2.6.9 4.8 2.7 6.6zM141.6 54.9c.5 2.3 1.5 4.1 3.2 5.4 1.7 1.3 3.8 1.9 6.2 1.9 3.4 0 6-1.3 7.5-3.8l3.9 2.2c-2.5 3.9-6.4 5.9-11.5 5.9-4.1 0-7.5-1.3-10.1-3.9-2.6-2.6-3.9-5.9-3.9-9.8 0-3.9 1.3-7.2 3.8-9.8 2.5-2.6 5.8-3.9 9.9-3.9 3.8 0 7 1.4 9.4 4 2.4 2.7 3.6 5.9 3.6 9.7 0 .7-.1 1.3-.2 2h-21.8zm9-11.6c-2.4 0-4.5.7-6.1 2.1-1.6 1.4-2.6 3.2-3 5.5h17.4c-.4-2.5-1.4-4.4-2.9-5.6-1.4-1.3-3.3-2-5.4-2zM179.3 39.1c3.1 0 5.5 1 7.4 2.9 1.8 1.9 2.8 4.6 2.8 7.9v16H185V50.1c0-2.1-.6-3.8-1.7-4.9-1.1-1.2-2.7-1.7-4.8-1.7-2.3 0-4.1.7-5.5 2.1-1.4 1.4-2.1 3.6-2.1 6.5v13.8h-4.5V39.7h4.5v3.8c1.8-3 4.6-4.4 8.4-4.4z"/>
        </g>
    </g>
</svg>
