<svg xmlns="http://www.w3.org/2000/svg" width="809.585" height="913.483">
    <g fill="#fff" stroke="#dde0e3" stroke-linejoin="round">
        <path d="M485.651 348.952l-161.717-93.367V93.867l161.717 93.367zM485.651 348.952l161.717-93.367V93.867l-161.717 93.368z"/>
        <path d="M485.651.503L323.934 93.868l161.717 93.367 161.717-93.367zM323.934 604.037l-161.717-93.364V348.952l161.717 93.367zM323.934 604.037l161.717-93.364V348.952L323.934 442.32z"/>
        <path d="M323.934 255.585l-161.717 93.368 161.717 93.367 161.717-93.367z"/>
        <g>
            <path d="M485.763 912.984l-161.717-93.367V657.895l161.717 93.367zM485.763 912.984l161.717-93.367V657.895l-161.717 93.372z"/>
            <path d="M485.763 564.532L324.046 657.9l161.717 93.369 161.717-93.367z"/>
        </g>
        <g>
            <path d="M647.368 604.037l-161.717-93.364V348.952l161.717 93.367zM647.368 604.037l161.717-93.364V348.952L647.368 442.32z"/>
            <path d="M647.368 255.585l-161.717 93.368 161.717 93.367 161.717-93.367z"/>
        </g>
        <g>
            <path d="M162.217 348.952L.5 255.584V93.867l161.717 93.367zM162.217 348.952l161.717-93.367V93.867l-161.717 93.368z"/>
            <path d="M162.217.503L.5 93.868l161.717 93.367 161.717-93.367z"/>
        </g>
    </g>
</svg>
